<svg width="65" height="24" viewBox="0 0 65 24" fill="none" xmlns="http://www.w3.org/2000/svg">
<path d="M9 5H7C6.46957 5 5.96086 5.21071 5.58579 5.58579C5.21071 5.96086 5 6.46957 5 7V19C5 19.5304 5.21071 20.0391 5.58579 20.4142C5.96086 20.7893 6.46957 21 7 21H10M19 12V7C19 6.46957 18.7893 5.96086 18.4142 5.58579C18.0391 5.21071 17.5304 5 17 5H15" stroke="black" stroke-width="2" stroke-linecap="round" stroke-linejoin="round"/>
<path d="M13 17V16C13 15.7348 13.1054 15.4804 13.2929 15.2929C13.4804 15.1054 13.7348 15 14 15H15M18 15H19C19.2652 15 19.5196 15.1054 19.7071 15.2929C19.8946 15.4804 20 15.7348 20 16V17M20 20V21C20 21.2652 19.8946 21.5196 19.7071 21.7071C19.5196 21.8946 19.2652 22 19 22H18M15 22H14C13.7348 22 13.4804 21.8946 13.2929 21.7071C13.1054 21.5196 13 21.2652 13 21V20" stroke="black" stroke-width="2" stroke-linecap="round" stroke-linejoin="round"/>
<path d="M9 5C9 4.46957 9.21071 3.96086 9.58579 3.58579C9.96086 3.21071 10.4696 3 11 3H13C13.5304 3 14.0391 3.21071 14.4142 3.58579C14.7893 3.96086 15 4.46957 15 5C15 5.53043 14.7893 6.03914 14.4142 6.41421C14.0391 6.78929 13.5304 7 13 7H11C10.4696 7 9.96086 6.78929 9.58579 6.41421C9.21071 6.03914 9 5.53043 9 5Z" stroke="black" stroke-width="2" stroke-linecap="round" stroke-linejoin="round"/>
<path d="M9 5H7C6.46957 5 5.96086 5.21071 5.58579 5.58579C5.21071 5.96086 5 6.46957 5 7V19C5 19.5304 5.21071 20.0391 5.58579 20.4142C5.96086 20.7893 6.46957 21 7 21H10M19 12V7C19 6.46957 18.7893 5.96086 18.4142 5.58579C18.0391 5.21071 17.5304 5 17 5H15" stroke="white" stroke-width="2" stroke-linecap="round" stroke-linejoin="round"/>
<path d="M13 17V16C13 15.7348 13.1054 15.4804 13.2929 15.2929C13.4804 15.1054 13.7348 15 14 15H15M18 15H19C19.2652 15 19.5196 15.1054 19.7071 15.2929C19.8946 15.4804 20 15.7348 20 16V17M20 20V21C20 21.2652 19.8946 21.5196 19.7071 21.7071C19.5196 21.8946 19.2652 22 19 22H18M15 22H14C13.7348 22 13.4804 21.8946 13.2929 21.7071C13.1054 21.5196 13 21.2652 13 21V20" stroke="white" stroke-width="2" stroke-linecap="round" stroke-linejoin="round"/>
<path d="M9 5C9 4.46957 9.21071 3.96086 9.58579 3.58579C9.96086 3.21071 10.4696 3 11 3H13C13.5304 3 14.0391 3.21071 14.4142 3.58579C14.7893 3.96086 15 4.46957 15 5C15 5.53043 14.7893 6.03914 14.4142 6.41421C14.0391 6.78929 13.5304 7 13 7H11C10.4696 7 9.96086 6.78929 9.58579 6.41421C9.21071 6.03914 9 5.53043 9 5Z" stroke="white" stroke-width="2" stroke-linecap="round" stroke-linejoin="round"/>
<path d="M32.9771 10.336C32.9771 10.9053 32.8465 11.428 32.5851 11.904C32.3238 12.3707 31.9225 12.7487 31.3811 13.038C30.8398 13.3273 30.1678 13.472 29.3651 13.472H27.8811V17H25.4871V7.172H29.3651C30.1491 7.172 30.8118 7.30733 31.3531 7.578C31.8945 7.84867 32.3005 8.222 32.5711 8.698C32.8418 9.174 32.9771 9.72 32.9771 10.336ZM29.1831 11.568C29.6405 11.568 29.9811 11.4607 30.2051 11.246C30.4291 11.0313 30.5411 10.728 30.5411 10.336C30.5411 9.944 30.4291 9.64067 30.2051 9.426C29.9811 9.21133 29.6405 9.104 29.1831 9.104H27.8811V11.568H29.1831ZM36.6175 10.49C36.8975 10.0607 37.2475 9.72467 37.6675 9.482C38.0875 9.23 38.5541 9.104 39.0675 9.104V11.638H38.4095C37.8121 11.638 37.3641 11.7687 37.0655 12.03C36.7668 12.282 36.6175 12.73 36.6175 13.374V17H34.2235V9.188H36.6175V10.49ZM43.7678 17.112C43.0024 17.112 42.3118 16.9487 41.6958 16.622C41.0891 16.2953 40.6084 15.8287 40.2538 15.222C39.9084 14.6153 39.7358 13.906 39.7358 13.094C39.7358 12.2913 39.9131 11.5867 40.2677 10.98C40.6224 10.364 41.1078 9.89267 41.7238 9.566C42.3398 9.23933 43.0304 9.076 43.7958 9.076C44.5611 9.076 45.2518 9.23933 45.8678 9.566C46.4838 9.89267 46.9691 10.364 47.3238 10.98C47.6784 11.5867 47.8558 12.2913 47.8558 13.094C47.8558 13.8967 47.6738 14.606 47.3098 15.222C46.9551 15.8287 46.4651 16.2953 45.8398 16.622C45.2238 16.9487 44.5331 17.112 43.7678 17.112ZM43.7678 15.04C44.2251 15.04 44.6124 14.872 44.9298 14.536C45.2564 14.2 45.4198 13.7193 45.4198 13.094C45.4198 12.4687 45.2611 11.988 44.9438 11.652C44.6358 11.316 44.2531 11.148 43.7958 11.148C43.3291 11.148 42.9418 11.316 42.6338 11.652C42.3258 11.9787 42.1718 12.4593 42.1718 13.094C42.1718 13.7193 42.3211 14.2 42.6198 14.536C42.9278 14.872 43.3104 15.04 43.7678 15.04ZM50.3158 8.376C49.8958 8.376 49.5505 8.25467 49.2798 8.012C49.0185 7.76 48.8878 7.452 48.8878 7.088C48.8878 6.71467 49.0185 6.40667 49.2798 6.164C49.5505 5.912 49.8958 5.786 50.3158 5.786C50.7265 5.786 51.0625 5.912 51.3238 6.164C51.5945 6.40667 51.7298 6.71467 51.7298 7.088C51.7298 7.452 51.5945 7.76 51.3238 8.012C51.0625 8.25467 50.7265 8.376 50.3158 8.376ZM51.5198 18.008C51.5198 18.9693 51.2771 19.66 50.7918 20.08C50.3065 20.5093 49.6298 20.724 48.7618 20.724H47.8238V18.694H48.3978C48.6591 18.694 48.8458 18.6427 48.9578 18.54C49.0698 18.4373 49.1258 18.2693 49.1258 18.036V9.188H51.5198V18.008ZM59.261 17L57.259 13.99L55.495 17H52.779L55.929 12.002L52.709 7.172H55.495L57.469 10.14L59.205 7.172H61.921L58.799 12.128L62.047 17H59.261Z" fill="white"/>
</svg>
